<svg width="1202" height="1310" viewBox="0 0 1202 1310" fill="none" xmlns="http://www.w3.org/2000/svg">
<path d="M1202 715C1202 1109.88 932.923 1310 601 1310C269.077 1310 0 1109.88 0 715C0 320.116 269.077 0 601 0C932.923 0 1202 320.116 1202 715Z" fill="#D9D9D9"/>
<rect x="253.5" y="312.5" width="695" height="752" rx="96.5" fill="#1C9CE4" stroke="url(#paint0_linear_41_43)" stroke-width="15"/>
<path d="M261 809H941V968C941 1017.15 901.153 1057 852 1057H350C300.847 1057 261 1017.15 261 968V809Z" fill="white"/>
<path d="M261 746.55C278.869 744.255 323.739 737.039 360.27 726.526C396.801 716.014 441.01 707.129 458.547 704L541.934 746.55C561.127 759.481 609.438 784.469 649.146 780.965C688.854 777.461 754.372 770.745 782.168 767.825C801.029 764.07 841.531 753.558 852.65 741.544C863.768 729.53 910.226 716.097 932.066 710.883H941V811H261V746.55Z" fill="#ABABAB"/>
<defs>
<linearGradient id="paint0_linear_41_43" x1="601" y1="320" x2="601" y2="1057" gradientUnits="userSpaceOnUse">
<stop stop-color="#B3B3B3"/>
<stop offset="1" stop-color="#6B6B6B"/>
</linearGradient>
</defs>
</svg>
